<svg width="601" height="516" viewBox="0 0 601 516" fill="none" xmlns="http://www.w3.org/2000/svg">
<g clip-path="url(#clip0_4_1321)">
<path d="M311.536 432.724L329.137 427.539L324.001 445.19L329.137 462.791L311.536 457.655L293.885 462.791L299.071 445.19L293.885 427.539L311.536 432.724Z" fill="black" stroke="white" stroke-miterlimit="10"/>
</g>
<g clip-path="url(#clip1_4_1321)">
<path d="M125.485 345.699L156.961 362.849L125.485 380.137L108.266 411.544L91.0471 380.137L59.5711 362.849L91.0471 345.699L108.266 314.154L125.485 345.699Z" fill="black" stroke="white" stroke-miterlimit="10"/>
</g>
<path d="M565.118 389.523C563.218 392.967 559.68 395.458 554.584 397.003C549.487 398.549 542.874 399.133 534.913 398.789C518.993 398.102 497.791 393.714 472.777 386.058C422.756 370.748 357.594 342.406 289.155 304.655C220.716 266.904 161.982 226.907 122.35 192.765C102.53 175.691 87.5081 160.099 78.4345 146.999C73.8971 140.449 70.8638 134.544 69.4519 129.408C68.0408 124.274 68.2604 119.952 70.16 116.508C72.0596 113.065 75.5979 110.573 80.6932 109.028C85.791 107.482 92.4031 106.899 100.364 107.242C116.285 107.929 137.487 112.318 162.501 119.974C212.521 135.283 277.683 163.626 346.123 201.376C414.562 239.127 473.295 279.124 512.928 313.266C532.747 330.34 547.769 345.932 556.843 359.032C561.38 365.583 564.414 371.487 565.826 376.623C567.237 381.757 567.017 386.079 565.118 389.523Z" stroke="black"/>
<path d="M544.887 426.197C542.987 429.641 539.449 432.132 534.354 433.677C529.256 435.223 522.644 435.806 514.683 435.463C498.762 434.776 477.56 430.387 452.546 422.731C402.526 407.422 337.364 379.079 268.924 341.329C200.485 303.578 141.752 263.581 102.119 229.439C82.2998 212.365 67.2777 196.773 58.2041 183.673C53.6667 177.122 50.6333 171.218 49.2215 166.082C47.8103 160.948 48.0299 156.626 49.9295 153.182C51.8291 149.738 55.3674 147.247 60.4627 145.702C65.5605 144.156 72.1726 143.572 80.1339 143.916C96.0544 144.603 117.256 148.991 142.27 156.647C192.291 171.957 257.453 200.299 325.892 238.05C394.332 275.801 453.065 315.798 492.697 349.94C512.517 367.014 527.539 382.606 536.613 395.706C541.15 402.256 544.183 408.161 545.595 413.297C547.006 418.431 546.787 422.753 544.887 426.197Z" stroke="black"/>
<path d="M524.659 462.871C522.759 466.315 519.221 468.806 514.125 470.351C509.028 471.897 502.415 472.481 494.454 472.137C478.534 471.451 457.332 467.062 432.318 459.406C382.297 444.096 317.135 415.754 248.696 378.003C180.257 340.252 121.523 300.255 81.8907 266.113C62.0713 249.039 47.0492 233.447 37.9755 220.347C33.4382 213.797 30.4048 207.893 28.9929 202.756C27.5818 197.622 27.8014 193.3 29.701 189.856C31.6006 186.413 35.1389 183.921 40.2342 182.376C45.332 180.831 51.9441 180.247 59.9054 180.59C75.8259 181.277 97.0276 185.666 122.042 193.322C172.062 208.632 237.224 236.974 305.664 274.724C374.103 312.475 432.836 352.472 472.469 386.614C492.288 403.688 507.31 419.28 516.384 432.38C520.921 438.931 523.955 444.835 525.367 449.971C526.778 455.105 526.558 459.427 524.659 462.871Z" stroke="black"/>
<circle cx="132.037" cy="104.69" r="15.5" fill="#9AE975"/>
<circle cx="421.537" cy="435.19" r="10" fill="#9AE975"/>
<circle cx="82.0374" cy="64.6897" r="23.5" fill="black"/>
<path d="M306.509 383.779C300.205 385.934 293.001 381.664 290.495 374.261L251.496 259.999L274.285 252.204L313.322 366.623C315.828 373.948 312.774 381.625 306.509 383.779Z" fill="black"/>
<path d="M303.103 385.19C301.262 385.19 299.383 384.759 297.582 383.858C293.94 382.056 291.043 378.687 289.633 374.535L250.635 260.273C250.478 259.842 250.713 259.333 251.183 259.177L273.971 251.381C274.206 251.303 274.441 251.303 274.637 251.421C274.833 251.538 274.989 251.695 275.068 251.93L314.105 366.348C316.729 374.104 313.44 382.291 306.744 384.602C305.609 384.994 304.356 385.19 303.103 385.19ZM252.593 260.548L291.317 373.987C292.57 377.708 295.154 380.763 298.365 382.33C300.949 383.584 303.729 383.819 306.235 382.957C312.03 380.959 314.849 373.752 312.5 366.897L273.736 253.301L252.593 260.548Z" fill="black"/>
<path d="M270.251 153.571L196.522 206.178L167.821 235.987L156.544 255.925L156.505 256.082C154.273 259.529 155.565 267.481 159.755 275.589C163.866 283.58 169.661 289.142 173.733 289.456L173.616 289.534L195.269 291.884L235.794 285.421L321.818 254.633L428.751 272.965L429.495 273.004C402.635 267.99 366.377 232.07 340.026 181.265C313.713 130.5 305.334 80.3217 316.885 55.5657H316.846L270.838 152.318L270.251 153.571Z" fill="#9AE975"/>
<path d="M447.267 270.793C473.694 257.063 468.584 194.819 435.852 131.767C403.121 68.7146 355.164 28.7311 328.736 42.4611C302.309 56.191 307.419 118.435 340.15 181.487C372.881 244.539 420.839 284.523 447.267 270.793Z" fill="white"/>
<path d="M435.643 274.375C424.132 274.375 410.271 267.951 395.353 255.455C375.031 238.455 355.101 212.25 339.243 181.618C315.241 135.24 305.335 87.6861 314.027 60.4623C316.925 51.3746 321.78 45.0289 328.397 41.621C341.553 34.8836 360.074 40.6026 380.591 57.7595C400.913 74.7597 420.843 100.965 436.7 131.597C460.742 177.975 470.648 225.529 461.916 252.753C459.019 261.84 454.164 268.186 447.546 271.594C443.983 273.474 439.99 274.375 435.643 274.375ZM340.379 40.6026C336.346 40.6026 332.587 41.4252 329.219 43.1879C322.994 46.3607 318.452 52.393 315.711 61.0498C307.136 87.8819 317.003 134.926 340.809 180.913C373.23 243.469 420.764 283.502 446.803 270.145C453.028 266.972 457.57 260.939 460.311 252.283C468.886 225.45 459.019 178.406 435.213 132.419C406.982 77.9717 367.357 40.6026 340.379 40.6026Z" fill="black"/>
<path d="M435.643 274.375C424.131 274.375 410.27 267.951 395.352 255.455C375.031 238.455 355.101 212.25 339.243 181.618C315.241 135.24 305.334 87.686 314.027 60.4622C316.924 51.3745 321.78 45.0288 328.397 41.6209C337.207 37.0771 348.718 38.2131 361.679 44.8721C374.091 51.257 387.521 62.5774 400.599 77.5799C400.912 77.9324 400.873 78.4808 400.521 78.7942C400.168 79.1076 399.62 79.0684 399.307 78.7159C372.76 48.2408 345.899 34.6093 329.219 43.1878C322.993 46.3606 318.451 52.393 315.711 61.0497C307.136 87.8819 317.003 134.926 340.809 180.913C369.001 235.321 408.665 272.73 435.604 272.73C439.637 272.73 443.396 271.907 446.763 270.144C452.989 266.972 457.531 260.939 460.272 252.282C468.847 225.45 458.98 178.406 435.173 132.419C428.086 118.709 420.098 105.822 411.523 94.1101C411.249 93.7183 411.328 93.1699 411.719 92.8958C412.111 92.6216 412.659 92.6999 412.933 93.0916C421.586 104.882 429.574 117.848 436.739 131.636C460.742 177.975 470.648 225.529 461.916 252.753C459.019 261.84 454.163 268.186 447.546 271.594C443.983 273.474 439.989 274.375 435.643 274.375Z" fill="black"/>
<path d="M387.304 190.528C393.426 187.348 392.249 172.94 384.674 158.348C377.099 143.756 365.995 134.506 359.873 137.687C353.751 140.867 354.928 155.275 362.503 169.867C370.078 184.458 381.182 193.709 387.304 190.528Z" fill="#9AE975"/>
<path d="M384.624 192.038C377.89 192.038 368.493 183.342 361.719 170.219C356.08 159.33 353.77 148.127 355.845 141.664C356.589 139.392 357.803 137.786 359.487 136.924C366.143 133.516 377.537 142.8 385.447 158.037C391.085 168.927 393.395 180.13 391.32 186.593C390.576 188.865 389.362 190.471 387.679 191.333C386.739 191.803 385.721 192.038 384.624 192.038ZM362.541 137.903C361.719 137.903 360.936 138.06 360.27 138.413C358.978 139.078 358.038 140.332 357.451 142.173C355.532 148.205 357.764 158.938 363.207 169.436C370.411 183.342 381.257 192.703 386.856 189.805C388.148 189.139 389.088 187.885 389.676 186.044C391.594 179.973 389.323 169.279 383.92 158.781C377.577 146.599 368.493 137.903 362.541 137.903Z" fill="#9AE975"/>
<path d="M429.692 259.764C419.59 259.764 407.452 254.123 394.374 243.195C376.597 228.31 359.134 205.356 345.273 178.563C324.247 137.981 315.594 96.3427 323.19 72.4875C325.735 64.4967 330.003 58.9344 335.837 55.9182C349.228 49.0633 368.923 56.9758 389.91 77.6189C390.263 77.9715 390.263 78.4807 389.91 78.8332C389.558 79.1858 389.049 79.1858 388.696 78.8332C368.257 58.7385 349.267 50.9043 336.62 57.4459C331.217 60.227 327.262 65.4368 324.834 72.9968C317.356 96.421 325.97 137.551 346.8 177.779C371.429 225.372 406.081 258.04 429.653 258.04C433.177 258.04 436.427 257.296 439.402 255.808C444.806 253.027 448.761 247.817 451.188 240.257C458.667 216.833 450.053 175.703 429.222 135.474C422.918 123.331 415.87 111.933 408.274 101.631C408 101.239 408.078 100.691 408.47 100.416C408.861 100.142 409.41 100.221 409.684 100.612C417.358 111.032 424.445 122.47 430.788 134.691C451.815 175.272 460.468 216.911 452.872 240.766C450.327 248.757 446.059 254.319 440.225 257.335C437.014 258.941 433.49 259.764 429.692 259.764Z" fill="black"/>
<path d="M195.309 292.707C195.269 292.707 195.23 292.707 195.23 292.707L173.577 290.357C173.46 290.357 173.343 290.318 173.225 290.239C168.761 289.534 163.123 283.894 159.012 275.981C154.626 267.638 153.334 259.49 155.723 255.651L155.762 255.534L167.039 235.557C167.078 235.478 167.117 235.439 167.156 235.4L195.857 205.591C195.896 205.552 195.935 205.512 195.974 205.473L269.508 152.984L316.024 55.1742C316.142 54.9783 316.298 54.8217 316.533 54.7433C316.768 54.665 317.003 54.665 317.199 54.7825C317.63 54.9783 317.825 55.4876 317.63 55.9184C305.844 81.1837 315.163 131.401 340.77 180.835C366.417 230.347 402.166 267.011 429.692 272.064C430.123 272.142 430.436 272.534 430.397 273.004C430.358 273.435 429.966 273.748 429.535 273.787L428.791 273.748C428.752 273.748 428.713 273.748 428.674 273.748L321.937 255.455L236.108 286.165C236.069 286.165 235.991 286.205 235.952 286.205L195.426 292.668C195.387 292.707 195.348 292.707 195.309 292.707ZM174.204 288.712L195.309 290.984L235.639 284.52L321.623 253.771C321.78 253.732 321.897 253.693 322.054 253.732L418.141 270.184C392.181 258.785 361.836 225.137 339.322 181.657C316.964 138.491 306.979 94.6586 312.461 66.9647L271.035 153.924C270.957 154.042 270.878 154.159 270.761 154.238L197.11 206.844L168.526 236.497L157.25 256.474C157.25 256.513 157.211 256.552 157.211 256.552C155.174 259.725 156.545 267.559 160.5 275.198C164.376 282.679 169.975 288.32 173.812 288.594C173.969 288.594 174.086 288.633 174.204 288.712Z" fill="black"/>
<path d="M270.368 153.258L316.845 55.5266H316.884C305.333 80.2827 313.752 130.461 340.025 181.226C366.376 232.07 402.634 267.99 429.573 272.926L428.829 272.886L322.053 254.594L319.586 254.163C307.174 251.969 290.611 235.831 278.747 212.798C266.57 189.178 264.416 165.636 269.819 154.433L270.368 153.258Z" fill="white"/>
<path d="M429.573 273.787C429.534 273.787 429.573 273.787 429.573 273.787L428.79 273.748C428.751 273.748 428.712 273.748 428.673 273.748L321.896 255.455L319.429 255.024C306.312 252.713 289.671 235.909 277.964 213.229C264.69 187.454 264.025 164.5 269.037 154.081L269.624 152.906L316.101 55.2133C316.219 55.0174 316.375 54.8607 316.61 54.7824C316.845 54.704 317.08 54.704 317.276 54.8216C317.707 55.0174 317.902 55.5266 317.707 55.9575C305.921 81.2228 315.24 131.44 340.847 180.874C366.494 230.386 402.243 267.05 429.769 272.103C430.2 272.181 430.513 272.573 430.474 273.043C430.356 273.435 430.004 273.787 429.573 273.787ZM312.382 66.9646L271.151 153.65L270.564 154.825C265.591 165.166 267.04 188.277 279.491 212.406C290.964 234.656 307.135 251.107 319.743 253.301L322.209 253.732L418.101 270.184C392.141 258.785 361.795 225.137 339.281 181.657C316.924 138.491 306.939 94.6584 312.382 66.9646Z" fill="black"/>
<path d="M194.133 292.589C194.094 292.589 194.055 292.589 194.055 292.589L173.538 290.396C173.42 290.396 173.303 290.357 173.185 290.278C168.722 289.573 163.083 283.933 158.972 276.02C154.626 267.637 153.334 259.49 155.722 255.651L155.761 255.534L167.038 235.556C167.273 235.126 167.782 235.008 168.213 235.243C168.643 235.478 168.761 235.987 168.526 236.418L157.249 256.474C157.249 256.513 157.21 256.552 157.21 256.552C155.174 259.725 156.544 267.559 160.499 275.197C164.375 282.679 169.975 288.32 173.812 288.594C173.929 288.594 174.086 288.633 174.164 288.711L194.212 290.866C194.682 290.905 195.034 291.336 194.956 291.806C194.917 292.237 194.564 292.589 194.133 292.589Z" fill="black"/>
<path d="M195.504 291.728C188.847 291.258 179.528 281.818 172.754 268.774C165.589 254.946 163.905 240.649 168.291 235.557L156.583 255.926L156.505 256.082C154.273 259.529 155.565 267.481 159.755 275.589C163.866 283.58 169.661 289.143 173.733 289.456L173.616 289.534L195.504 291.728Z" fill="white"/>
<path d="M195.504 292.59C195.465 292.59 195.465 292.59 195.426 292.59C195.269 292.59 195.073 292.55 194.917 292.55L173.538 290.396C173.42 290.396 173.303 290.357 173.185 290.278C168.722 289.573 163.083 283.933 158.972 276.02C154.626 267.638 153.334 259.49 155.722 255.651L155.761 255.534L166.059 237.593C166.451 236.575 166.96 235.674 167.586 234.93C167.86 234.577 168.369 234.538 168.722 234.773C169.074 235.047 169.192 235.517 168.957 235.909L167.508 238.377C165.198 244.605 167.469 256.826 173.42 268.264C179.881 280.76 188.691 289.887 194.995 290.709L195.465 290.748C195.935 290.788 196.287 291.219 196.248 291.689C196.287 292.237 195.935 292.59 195.504 292.59ZM174.164 288.712L189.122 290.239C183.366 286.557 177.023 278.958 171.972 269.165C167.077 259.725 164.65 249.932 165.041 242.882L157.249 256.474C157.249 256.513 157.21 256.552 157.21 256.552C155.174 259.725 156.544 267.559 160.499 275.198C164.375 282.679 169.975 288.32 173.812 288.594C173.929 288.594 174.086 288.633 174.164 288.712Z" fill="black"/>
<path d="M234.345 285.578L236.068 285.225C226.749 287.184 212.027 273.082 201.651 253.066C191.04 232.618 189.043 212.21 196.56 206.178L195.582 207.157L168.369 235.439C163.905 240.453 165.549 254.828 172.754 268.734C179.685 282.131 189.512 291.688 196.208 291.649L234.345 285.578Z" fill="black"/>
<path d="M196.17 292.55C189.043 292.55 179.137 282.953 171.972 269.165C164.689 255.064 162.849 240.335 167.704 234.89L194.408 207.157C194.878 206.531 195.426 205.982 196.013 205.512C196.365 205.238 196.874 205.277 197.188 205.591C197.501 205.943 197.501 206.452 197.188 206.766L195.661 208.372C190.218 215.657 192.92 234.303 202.434 252.674C212.693 272.495 227.024 286.087 235.795 284.442L235.912 284.403C236.382 284.324 236.813 284.598 236.93 285.068C237.009 285.539 236.734 285.969 236.265 286.087C236.225 286.087 236.186 286.087 236.147 286.126L234.542 286.439H234.503L196.365 292.511C196.287 292.511 196.209 292.55 196.17 292.55ZM192.137 212.015L168.996 236.066C164.689 240.923 166.647 255.103 173.538 268.382C180.273 281.386 189.787 290.787 196.17 290.827L229.843 285.46C220.759 282.248 209.561 270.144 200.907 253.497C192.685 237.632 189.513 221.494 192.137 212.015Z" fill="black"/>
<path d="M359.878 137.668C353.731 140.802 354.632 155.334 362.463 169.828C375.58 194.074 386.034 191.215 387.248 190.784C387.287 190.784 387.287 190.823 387.248 190.823L364.734 208.959C358.116 199.676 351.812 189.335 346.017 178.171C340.497 167.477 335.837 156.823 332.156 146.482L359.878 137.668Z" fill="black"/>
<path d="M364.733 209.821C364.694 209.821 364.655 209.821 364.616 209.821C364.381 209.782 364.185 209.664 364.029 209.469C357.255 199.95 350.951 189.531 345.273 178.602C339.831 168.104 335.132 157.41 331.373 146.834C331.295 146.599 331.295 146.364 331.412 146.168C331.53 145.972 331.686 145.816 331.921 145.737L359.643 136.924C360.074 136.806 360.544 137.002 360.7 137.433C360.857 137.864 360.7 138.334 360.309 138.53C358.978 139.196 357.999 140.528 357.411 142.486C355.493 148.636 357.842 159.526 363.285 169.514C376.088 193.174 385.956 190.471 387.013 190.079C387.404 189.922 387.874 190.118 388.07 190.471C388.266 190.823 388.187 191.332 387.874 191.607L365.282 209.625C365.125 209.743 364.929 209.821 364.733 209.821ZM333.292 147.03C337.012 157.254 341.554 167.595 346.8 177.779C352.282 188.355 358.39 198.422 364.929 207.706L384.468 191.959C380.004 191.763 371.586 188.434 361.718 170.219C356.002 159.682 353.653 148.558 355.728 141.86C356.002 140.998 356.315 140.254 356.707 139.548L333.292 147.03Z" fill="black"/>
<path d="M475.724 81.7871C493.624 72.3834 500.547 50.3056 491.187 32.4749C481.828 14.6442 459.729 7.81281 441.829 17.2165C423.929 26.6202 417.006 48.698 426.365 66.5287C435.725 84.3594 457.824 91.1908 475.724 81.7871Z" fill="black"/>
<path d="M442.105 41.4249C443.827 39.0746 446.372 37.6253 449.27 37.3119C451.463 37.0769 453.499 37.547 455.417 38.7221C456.396 39.3097 457.258 40.0539 458.08 40.9549C458.667 39.8972 459.372 38.9571 460.194 38.1737C461.8 36.6069 463.718 35.7059 465.872 35.4709C468.769 35.1575 471.588 36.0193 473.781 37.9387C475.935 39.8189 477.305 42.5609 477.658 45.6554C478.01 48.8282 477.148 51.8836 474.956 55.2523C472.998 58.2684 470.022 61.4021 466.577 65.0842C465.402 66.3376 464.071 67.7478 462.7 69.2363C462.348 69.628 461.839 69.9022 461.291 69.9414C460.742 70.0197 460.233 69.863 459.764 69.5497C458.08 68.3745 456.475 67.2778 455.065 66.3376C450.914 63.5173 447.312 61.0887 444.728 58.5818C441.83 55.8007 440.343 52.9803 439.99 49.8075C439.677 46.713 440.421 43.736 442.105 41.4249Z" fill="white"/>
<path d="M577.273 83.7819C590.377 70.6723 590.377 49.4175 577.272 36.3079C564.168 23.1983 542.922 23.1983 529.818 36.3079C516.713 49.4175 516.713 70.6723 529.818 83.7819C542.922 96.8915 564.168 96.8915 577.273 83.7819Z" fill="#9AE975"/>
<path d="M553.539 94.4627C534.588 94.4627 519.121 79.0293 519.121 60.0314C519.121 41.0726 534.549 25.6001 553.539 25.6001C572.529 25.6001 587.956 41.0335 587.956 60.0314C587.956 78.9901 572.529 94.4627 553.539 94.4627ZM553.539 27.3236C535.527 27.3236 520.844 41.9736 520.844 60.0314C520.844 78.05 535.488 92.7392 553.539 92.7392C571.55 92.7392 586.233 78.0892 586.233 60.0314C586.233 42.0127 571.589 27.3236 553.539 27.3236Z" fill="#9AE975"/>
<path d="M562.622 63.361C560.743 63.361 559.098 64.2619 558.002 65.6721L546.686 61.2458C546.686 61.0891 546.725 60.9716 546.725 60.8149C546.725 60.5407 546.686 60.2665 546.647 59.9923L558.237 54.6259C559.294 55.8402 560.86 56.6236 562.622 56.6628C565.833 56.6628 568.496 54.0383 568.496 50.7871C568.496 47.5359 565.872 44.8723 562.622 44.8723C559.412 44.8723 556.749 47.4968 556.749 50.748C556.749 51.0222 556.788 51.2964 556.827 51.5706L545.237 56.937C544.18 55.7227 542.614 54.9393 540.852 54.9001C537.641 54.9001 534.979 57.5245 534.979 60.7757C534.979 64.0269 537.602 66.6906 540.852 66.6906C542.731 66.6906 544.376 65.7896 545.472 64.3795L556.788 68.8058C556.788 68.9625 556.749 69.08 556.749 69.2367C556.749 72.4879 559.372 75.1515 562.622 75.1515C565.833 75.1515 568.496 72.527 568.496 69.2758C568.456 66.0246 565.833 63.4002 562.622 63.361Z" fill="black"/>
<path d="M563.067 190.182C578.433 179.512 582.294 158.472 571.69 143.188C561.086 127.904 540.032 124.164 524.666 134.835C509.299 145.505 505.438 166.545 516.043 181.828C526.647 197.112 547.7 200.852 563.067 190.182Z" fill="black"/>
<path d="M535.412 178.563L530.478 151.809C530.243 150.438 531.496 149.302 532.827 149.654L561.998 157.92C563.486 158.35 563.838 160.27 562.624 161.21L538.348 179.699C537.291 180.56 535.686 179.973 535.412 178.563Z" fill="white"/>
<path d="M543.536 299.771C562.512 290.529 570.452 267.743 561.271 248.875C552.09 230.008 529.264 222.205 510.288 231.447C491.311 240.689 483.371 263.476 492.552 282.343C501.733 301.21 524.559 309.013 543.536 299.771Z" fill="#9AE975"/>
<path d="M526.718 304.536C522.646 304.536 518.495 303.91 514.462 302.539C504.595 299.248 496.608 292.354 491.987 283.032C487.367 273.748 486.662 263.211 489.99 253.34C496.882 233.01 519.044 221.925 539.443 228.701C549.311 231.992 557.298 238.886 561.919 248.209C566.539 257.492 567.244 268.029 563.915 277.9C558.355 294.195 543.046 304.536 526.718 304.536ZM527.11 228.466C511.487 228.466 496.843 238.337 491.557 253.928C488.385 263.368 489.051 273.435 493.475 282.287C497.9 291.179 505.535 297.799 514.971 300.933C534.471 307.396 555.654 296.82 562.232 277.391C565.403 267.951 564.738 257.884 560.313 249.031C555.889 240.139 548.253 233.519 538.817 230.386C534.941 229.054 530.986 228.466 527.11 228.466Z" fill="black"/>
<path d="M533.13 265.016C536.632 261.513 536.632 255.834 533.13 252.331C529.629 248.828 523.951 248.828 520.45 252.331C516.948 255.834 516.948 261.513 520.45 265.016C523.951 268.519 529.629 268.519 533.13 265.016Z" fill="#9AE975"/>
<defs>
<clipPath id="clip0_4_1321">
<rect width="36" height="36" fill="white" transform="translate(293.537 427.19)"/>
</clipPath>
<clipPath id="clip1_4_1321">
<rect width="70.3259" height="70.3259" fill="white" transform="translate(108.266 313.19) rotate(45)"/>
</clipPath>
</defs>
</svg>
